<svg xmlns="http://www.w3.org/2000/svg" version="1.1" xmlns:xlink="http://www.w3.org/1999/xlink" xmlns:svgjs="http://svgjs.dev/svgjs" width="1000" height="366" viewBox="0 0 1000 366"><g transform="matrix(1,0,0,1,-0.6060583247605678,-0.3077070567545661)"><svg viewBox="0 0 396 145" data-background-color="#636365" preserveAspectRatio="xMidYMid meet" height="366" width="1000" xmlns="http://www.w3.org/2000/svg" xmlns:xlink="http://www.w3.org/1999/xlink"><g id="tight-bounds" transform="matrix(1,0,0,1,0.2399990966051746,0.12190580117325567)"><svg viewBox="0 0 395.52 144.7561883976535" height="144.7561883976535" width="395.52"><g><svg viewBox="0 0 667.8643074078561 244.43135999999996" height="144.7561883976535" width="395.52"><g transform="matrix(1,0,0,1,272.3443074078562,29.279334250675817)"><svg viewBox="0 0 395.52 185.87269149864832" height="185.87269149864832" width="395.52"><g id="textblocktransform"><svg viewBox="0 0 395.52 185.87269149864832" height="185.87269149864832" width="395.52" id="textblock"><g><svg viewBox="0 0 395.52 118.23712451861361" height="118.23712451861361" width="395.52"><g transform="matrix(1,0,0,1,0,0)"><svg width="395.52" viewBox="2.4800000190734863 -34.18000030517578 155.77999877929688 46.58000183105469" height="118.23712451861361" data-palette-color="#ffffff"><path d="M16.28 0.65L16.28 0.65Q12.43 0.65 9.3-1.36 6.18-3.38 4.33-7.04 2.48-10.7 2.48-15.65L2.48-15.65Q2.48-19.68 3.64-22.8 4.8-25.93 6.86-28.08 8.93-30.23 11.65-31.33 14.38-32.43 17.48-32.43L17.48-32.43Q21.53-32.43 24.43-30.73 27.33-29.03 29.2-25.33L29.2-25.33 24.5-23.98Q23-26.05 21.2-27.09 19.4-28.13 17.25-28.13L17.25-28.13Q14.63-28.13 12.41-26.61 10.2-25.1 8.88-22.31 7.55-19.53 7.55-15.65L7.55-15.65Q7.55-12.13 8.66-9.44 9.78-6.75 11.81-5.24 13.85-3.73 16.63-3.73L16.63-3.73Q18.82-3.73 20.58-4.73 22.33-5.73 23.34-7.69 24.35-9.65 24.35-12.55L24.35-12.55 25.6-12.55Q25.6-8.53 24.64-5.56 23.68-2.6 21.63-0.98 19.58 0.65 16.28 0.65ZM28.95 0L25.1 0 24.35-7.3 24.35-12.7 16.7-12.9 16.7-16.03 28.95-16.03 28.95 0ZM57 0L52.85 0 52.25-5.53 52.25-15.55Q52.25-18.5 51.02-19.84 49.8-21.18 47.15-21.18L47.15-21.18Q45.65-21.18 44.48-20.74 43.32-20.3 42.66-19.43 42-18.55 42-17.23L42-17.23 36.75-17.23Q36.75-19.88 38.05-21.53 39.35-23.18 41.69-23.94 44.02-24.7 47.15-24.7L47.15-24.7Q50.07-24.7 52.3-23.74 54.52-22.78 55.76-20.73 57-18.68 57-15.43L57-15.43 57 0ZM44.8 0.65L44.8 0.65Q41.77 0.65 39.77-0.41 37.77-1.48 36.79-3.2 35.8-4.93 35.8-6.88L35.8-6.88Q35.8-9.25 37.01-10.79 38.22-12.33 40.37-13.08 42.52-13.83 45.32-13.83L45.32-13.83Q47.25-13.83 49.07-13.48 50.9-13.13 52.67-12.55L52.67-12.55 52.67-9.68Q51.22-10.2 49.46-10.51 47.7-10.83 46.17-10.83L46.17-10.83Q43.9-10.83 42.37-9.93 40.85-9.03 40.85-6.88L40.85-6.88Q40.85-5.3 42.05-4.16 43.25-3.03 45.85-3.03L45.85-3.03Q47.75-3.03 49.2-3.89 50.65-4.75 51.45-6.05 52.25-7.35 52.25-8.65L52.25-8.65 53.4-8.65Q53.4-6.15 52.39-4.04 51.37-1.93 49.45-0.64 47.52 0.65 44.8 0.65ZM70.77 0L66.02 0 66.02-34.18 70.77-34.18 70.77 0ZM85.29 0L80.54 0 80.54-34.18 85.29-34.18 85.29 0ZM103.69 0.65L103.69 0.65Q100.59 0.65 98.09-0.95 95.59-2.55 94.13-5.4 92.67-8.25 92.67-12L92.67-12Q92.67-15.98 94.12-18.81 95.57-21.65 98.07-23.18 100.57-24.7 103.69-24.7L103.69-24.7Q106.49-24.7 108.49-23.56 110.49-22.43 111.72-20.51 112.94-18.6 113.4-16.18 113.87-13.75 113.57-11.18L113.57-11.18 96.47-11.18 96.47-13.93 110.32-13.93 109.17-13.18Q109.24-14.53 109.03-15.88 108.82-17.23 108.22-18.36 107.62-19.5 106.53-20.19 105.44-20.88 103.77-20.88L103.77-20.88Q101.67-20.88 100.25-19.83 98.84-18.78 98.12-17.01 97.39-15.25 97.39-13.15L97.39-13.15 97.39-11.23Q97.39-8.9 98.09-7.1 98.79-5.3 100.18-4.26 101.57-3.23 103.69-3.23L103.69-3.23Q105.77-3.23 107.13-4.2 108.49-5.18 108.82-7.13L108.82-7.13 113.67-7.13Q113.29-4.78 111.94-3.03 110.59-1.28 108.48-0.31 106.37 0.65 103.69 0.65ZM125.84 0L121.09 0 121.09-24.13 125.84-24.13 125.84 0ZM125.84-10.75L124.54-10.75Q124.54-15.38 125.5-18.44 126.46-21.5 128.2-23 129.94-24.5 132.29-24.5L132.29-24.5Q132.99-24.5 133.6-24.4 134.21-24.3 134.81-24.13L134.81-24.13 134.64-19.4Q133.96-19.58 133.18-19.71 132.39-19.85 131.74-19.85L131.74-19.85Q129.69-19.85 128.39-18.76 127.09-17.68 126.46-15.64 125.84-13.6 125.84-10.75L125.84-10.75ZM145.76 0L135.99-24.05 141.31-24.05 148.56-4.15 147.59-4.15 153.41-24.05 158.26-24.05 149.14 4.63Q147.89 8.53 145.92 10.46 143.96 12.4 141.01 12.4L141.01 12.4Q139.36 12.4 137.85 11.98 136.34 11.55 134.76 10.73L134.76 10.73 134.76 6.45Q136.11 7.4 137.36 7.83 138.61 8.25 139.96 8.25L139.96 8.25Q141.31 8.25 142.27 7.44 143.24 6.63 143.9 5.29 144.56 3.95 145.04 2.38L145.04 2.38 145.76 0Z" opacity="1" transform="matrix(1,0,0,1,0,0)" fill="#ffffff" class="wordmark-text-0" data-fill-palette-color="primary" id="text-0"></path></svg></g></svg></g><g transform="matrix(1,0,0,1,0,146.15007192646985)"><svg viewBox="0 0 395.52 39.72261957217848" height="39.72261957217848" width="395.52"><g transform="matrix(1,0,0,1,0,0)"><svg width="395.52" viewBox="0.30000001192092896 -34.93000030517578 465.24688720703125 46.72999954223633" height="39.72261957217848" data-palette-color="#ffffff"><path d="M11.53-27.75L0.3-27.75 0.3-31.85 25.4-31.85 25.4-27.75 14.15-27.75 15.23-28.85 15.23 0 10.48 0 10.48-28.85 11.53-27.75ZM52.13 0L47.4 0 47.4-14.1Q47.4-17.23 45.91-18.84 44.43-20.45 41.9-20.45L41.9-20.45Q39.9-20.45 38.41-19.36 36.93-18.28 36.11-16.19 35.3-14.1 35.3-11.1L35.3-11.1 33.6-11.1Q33.6-15.53 34.74-18.55 35.88-21.58 38-23.14 40.13-24.7 43.1-24.7L43.1-24.7Q46-24.7 48.01-23.4 50.03-22.1 51.08-19.71 52.13-17.32 52.13-14.1L52.13-14.1 52.13 0ZM35.3 0L30.55 0 30.55-34.18 35.3-34.18 35.3 0ZM69.78 0.65L69.78 0.65Q66.68 0.65 64.18-0.95 61.68-2.55 60.21-5.4 58.75-8.25 58.75-12L58.75-12Q58.75-15.98 60.2-18.81 61.65-21.65 64.15-23.18 66.65-24.7 69.78-24.7L69.78-24.7Q72.58-24.7 74.58-23.56 76.58-22.43 77.8-20.51 79.03-18.6 79.49-16.18 79.95-13.75 79.65-11.18L79.65-11.18 62.55-11.18 62.55-13.93 76.4-13.93 75.25-13.18Q75.33-14.53 75.11-15.88 74.9-17.23 74.3-18.36 73.7-19.5 72.61-20.19 71.53-20.88 69.85-20.88L69.85-20.88Q67.75-20.88 66.34-19.83 64.93-18.78 64.2-17.01 63.48-15.25 63.48-13.15L63.48-13.15 63.48-11.23Q63.48-8.9 64.18-7.1 64.88-5.3 66.26-4.26 67.65-3.23 69.78-3.23L69.78-3.23Q71.85-3.23 73.21-4.2 74.58-5.18 74.9-7.13L74.9-7.13 79.75-7.13Q79.38-4.78 78.03-3.03 76.68-1.28 74.56-0.31 72.45 0.65 69.78 0.65ZM109.25-5.13L108.7-5.13 117.58-31.85 122.6-31.85 111.43 0 106.45 0 95.4-31.85 100.45-31.85 109.25-5.13ZM131.1-29.18L131.1-29.18Q129.68-29.18 128.86-29.96 128.05-30.75 128.05-32.1L128.05-32.1Q128.05-33.4 128.86-34.16 129.68-34.93 131.1-34.93L131.1-34.93Q132.5-34.93 133.31-34.16 134.13-33.4 134.13-32.1L134.13-32.1Q134.13-30.75 133.31-29.96 132.5-29.18 131.1-29.18ZM133.48 0L128.73 0 128.73-24.13 133.48-24.13 133.48 0ZM152.53 0.65L152.53 0.65Q149.43 0.65 146.93-0.95 144.43-2.55 142.96-5.4 141.5-8.25 141.5-12L141.5-12Q141.5-15.98 142.95-18.81 144.4-21.65 146.9-23.18 149.4-24.7 152.53-24.7L152.53-24.7Q155.33-24.7 157.33-23.56 159.33-22.43 160.55-20.51 161.78-18.6 162.24-16.18 162.7-13.75 162.4-11.18L162.4-11.18 145.3-11.18 145.3-13.93 159.15-13.93 158-13.18Q158.08-14.53 157.86-15.88 157.65-17.23 157.05-18.36 156.45-19.5 155.36-20.19 154.28-20.88 152.6-20.88L152.6-20.88Q150.5-20.88 149.09-19.83 147.68-18.78 146.95-17.01 146.23-15.25 146.23-13.15L146.23-13.15 146.23-11.23Q146.23-8.9 146.93-7.1 147.63-5.3 149.01-4.26 150.4-3.23 152.53-3.23L152.53-3.23Q154.6-3.23 155.96-4.2 157.33-5.18 157.65-7.13L157.65-7.13 162.5-7.13Q162.13-4.78 160.78-3.03 159.43-1.28 157.31-0.31 155.2 0.65 152.53 0.65ZM173.8 0L165.83-24.05 170.78-24.05 176.5-4.75 175.98-4.75 181.5-22.83 185.63-22.83 191.13-4.7 190.63-4.7 196.35-24.05 201.1-24.05 193.2 0 188.55 0 183.1-17 183.83-17 178.45 0 173.8 0ZM239 0L219 0 219-31.85 239-31.85 239-27.75 223.75-27.75 223.75-18.05 238.1-18.05 238.1-13.95 223.75-13.95 223.75-4.15 239-4.15 239 0ZM249.7 0L243.88 0 253.1-12 243.88-24.13 249.7-24.13 256.18-15.6 262.35-24.13 268.15-24.13 258.93-12 268.13 0 262.33 0 255.83-8.55 249.7 0ZM285.55 0.65L285.55 0.65Q282.93 0.65 281-0.54 279.08-1.73 278.06-4.04 277.05-6.35 277.05-9.78L277.05-9.78 278.9-9.78Q278.9-7.8 279.75-6.44 280.6-5.08 281.99-4.36 283.38-3.65 284.95-3.65L284.95-3.65Q286.6-3.65 288.16-4.59 289.73-5.53 290.73-7.4 291.73-9.28 291.73-12.05L291.73-12.05Q291.73-14.7 290.84-16.57 289.95-18.45 288.43-19.45 286.9-20.45 285-20.45L285-20.45Q283.4-20.45 282-19.69 280.6-18.93 279.75-17.46 278.9-16 278.9-13.9L278.9-13.9 277.05-13.9Q277.05-17.53 278.21-19.93 279.38-22.33 281.35-23.51 283.33-24.7 285.73-24.7L285.73-24.7Q288.55-24.7 291.03-23.19 293.5-21.68 295.04-18.85 296.58-16.03 296.58-12.05L296.58-12.05Q296.58-8.08 295.03-5.23 293.48-2.38 290.96-0.86 288.45 0.65 285.55 0.65ZM278.9 11.8L274.15 11.8 274.15-24.05 278.08-24.05 278.9-18.28 278.9 11.8ZM312.55 0.65L312.55 0.65Q309.45 0.65 306.95-0.95 304.45-2.55 302.99-5.4 301.53-8.25 301.53-12L301.53-12Q301.53-15.98 302.98-18.81 304.43-21.65 306.93-23.18 309.43-24.7 312.55-24.7L312.55-24.7Q315.35-24.7 317.35-23.56 319.35-22.43 320.57-20.51 321.8-18.6 322.26-16.18 322.73-13.75 322.43-11.18L322.43-11.18 305.32-11.18 305.32-13.93 319.18-13.93 318.03-13.18Q318.1-14.53 317.89-15.88 317.68-17.23 317.07-18.36 316.48-19.5 315.39-20.19 314.3-20.88 312.63-20.88L312.63-20.88Q310.53-20.88 309.11-19.83 307.7-18.78 306.98-17.01 306.25-15.25 306.25-13.15L306.25-13.15 306.25-11.23Q306.25-8.9 306.95-7.1 307.65-5.3 309.04-4.26 310.43-3.23 312.55-3.23L312.55-3.23Q314.63-3.23 315.99-4.2 317.35-5.18 317.68-7.13L317.68-7.13 322.53-7.13Q322.15-4.78 320.8-3.03 319.45-1.28 317.34-0.31 315.23 0.65 312.55 0.65ZM334.7 0L329.95 0 329.95-24.13 334.7-24.13 334.7 0ZM334.7-10.75L333.4-10.75Q333.4-15.38 334.36-18.44 335.32-21.5 337.06-23 338.8-24.5 341.15-24.5L341.15-24.5Q341.85-24.5 342.46-24.4 343.07-24.3 343.68-24.13L343.68-24.13 343.5-19.4Q342.82-19.58 342.04-19.71 341.25-19.85 340.6-19.85L340.6-19.85Q338.55-19.85 337.25-18.76 335.95-17.68 335.32-15.64 334.7-13.6 334.7-10.75L334.7-10.75ZM351.43-29.18L351.43-29.18Q350-29.18 349.19-29.96 348.38-30.75 348.38-32.1L348.38-32.1Q348.38-33.4 349.19-34.16 350-34.93 351.43-34.93L351.43-34.93Q352.82-34.93 353.64-34.16 354.45-33.4 354.45-32.1L354.45-32.1Q354.45-30.75 353.64-29.96 352.82-29.18 351.43-29.18ZM353.8 0L349.05 0 349.05-24.13 353.8-24.13 353.8 0ZM372.85 0.65L372.85 0.65Q369.75 0.65 367.25-0.95 364.75-2.55 363.29-5.4 361.83-8.25 361.83-12L361.83-12Q361.83-15.98 363.28-18.81 364.73-21.65 367.23-23.18 369.73-24.7 372.85-24.7L372.85-24.7Q375.65-24.7 377.65-23.56 379.65-22.43 380.88-20.51 382.1-18.6 382.56-16.18 383.03-13.75 382.73-11.18L382.73-11.18 365.63-11.18 365.63-13.93 379.48-13.93 378.33-13.18Q378.4-14.53 378.19-15.88 377.98-17.23 377.38-18.36 376.78-19.5 375.69-20.19 374.6-20.88 372.93-20.88L372.93-20.88Q370.83-20.88 369.41-19.83 368-18.78 367.28-17.01 366.55-15.25 366.55-13.15L366.55-13.15 366.55-11.23Q366.55-8.9 367.25-7.1 367.95-5.3 369.34-4.26 370.73-3.23 372.85-3.23L372.85-3.23Q374.93-3.23 376.29-4.2 377.65-5.18 377.98-7.13L377.98-7.13 382.83-7.13Q382.45-4.78 381.1-3.03 379.75-1.28 377.64-0.31 375.53 0.65 372.85 0.65ZM411.82 0L407.1 0 407.1-14.1Q407.1-17.23 405.61-18.84 404.13-20.45 401.6-20.45L401.6-20.45Q399.6-20.45 398.11-19.36 396.63-18.28 395.81-16.19 395-14.1 395-11.1L395-11.1 393.3-11.1Q393.3-15.53 394.44-18.55 395.57-21.58 397.7-23.14 399.82-24.7 402.8-24.7L402.8-24.7Q405.7-24.7 407.71-23.4 409.73-22.1 410.77-19.71 411.82-17.32 411.82-14.1L411.82-14.1 411.82 0ZM395 0L390.25 0 390.25-24.05 394.38-24.05 395-18.85 395 0ZM429.6 0.65L429.6 0.65Q426.65 0.65 424.1-0.93 421.55-2.5 420-5.35 418.45-8.2 418.45-12.05L418.45-12.05Q418.45-16.1 420-18.91 421.55-21.73 424.1-23.21 426.65-24.7 429.6-24.7L429.6-24.7Q431.78-24.7 433.48-24.01 435.18-23.33 436.4-22.16 437.63-21 438.39-19.55 439.15-18.1 439.45-16.55L439.45-16.55 434.63-16.3Q434.1-18.18 432.79-19.31 431.48-20.45 429.55-20.45L429.55-20.45Q427.93-20.45 426.49-19.54 425.05-18.63 424.16-16.76 423.28-14.9 423.28-12.05L423.28-12.05Q423.28-9.4 424.1-7.53 424.93-5.65 426.35-4.65 427.78-3.65 429.55-3.65L429.55-3.65Q432.1-3.65 433.36-4.89 434.63-6.13 434.63-8.3L434.63-8.3 439.45-8.3Q439.45-5.78 438.28-3.75 437.1-1.73 434.89-0.54 432.68 0.65 429.6 0.65ZM455.55 0.65L455.55 0.65Q452.45 0.65 449.95-0.95 447.45-2.55 445.99-5.4 444.53-8.25 444.53-12L444.53-12Q444.53-15.98 445.98-18.81 447.43-21.65 449.93-23.18 452.43-24.7 455.55-24.7L455.55-24.7Q458.35-24.7 460.35-23.56 462.35-22.43 463.57-20.51 464.8-18.6 465.26-16.18 465.73-13.75 465.43-11.18L465.43-11.18 448.32-11.18 448.32-13.93 462.18-13.93 461.03-13.18Q461.1-14.53 460.89-15.88 460.68-17.23 460.07-18.36 459.48-19.5 458.39-20.19 457.3-20.88 455.63-20.88L455.63-20.88Q453.53-20.88 452.11-19.83 450.7-18.78 449.98-17.01 449.25-15.25 449.25-13.15L449.25-13.15 449.25-11.23Q449.25-8.9 449.95-7.1 450.65-5.3 452.04-4.26 453.43-3.23 455.55-3.23L455.55-3.23Q457.63-3.23 458.99-4.2 460.35-5.18 460.68-7.13L460.68-7.13 465.53-7.13Q465.15-4.78 463.8-3.03 462.45-1.28 460.34-0.31 458.23 0.65 455.55 0.65Z" opacity="1" transform="matrix(1,0,0,1,0,0)" fill="#ffffff" class="slogan-text-1" data-fill-palette-color="secondary" id="text-1"></path></svg></g></svg></g></svg></g></svg></g><g><svg viewBox="0 0 244.43135999999996 244.43135999999996" height="244.43135999999996" width="244.43135999999996"><g><svg xmlns="http://www.w3.org/2000/svg" xmlns:xlink="http://www.w3.org/1999/xlink" version="1.1" x="0" y="0" viewBox="5 5 90 90" enable-background="new 0 0 100 100" xml:space="preserve" height="244.43135999999996" width="244.43135999999996" class="icon-icon-0" data-fill-palette-color="accent" id="icon-0"><path d="M28.4 5L28.4 5H6.8C5.806 5 5 5.806 5 6.8v0 21.524h0.004C5.003 28.349 5 28.374 5 28.4c0 0.994 0.806 1.8 1.8 1.8s1.8-0.806 1.8-1.8c0-0.026-0.003-0.051-0.004-0.076H8.6V8.6h19.8l0 0c0.994 0 1.8-0.806 1.8-1.8C30.2 5.806 29.394 5 28.4 5z" fill="#ffffff" data-fill-palette-color="accent"></path><path d="M95 28.4L95 28.4V6.8C95 5.806 94.194 5 93.2 5h0H71.676v0.004C71.651 5.003 71.626 5 71.6 5c-0.994 0-1.8 0.806-1.8 1.8s0.806 1.8 1.8 1.8c0.026 0 0.051-0.003 0.076-0.004V8.6H91.4v19.8c0 0 0 0 0 0 0 0.994 0.806 1.8 1.8 1.8C94.194 30.2 95 29.394 95 28.4z" fill="#ffffff" data-fill-palette-color="accent"></path><path d="M71.6 95L71.6 95h21.6c0.994 0 1.8-0.806 1.8-1.8v0V71.676h-0.004C94.997 71.651 95 71.626 95 71.6c0-0.994-0.806-1.8-1.8-1.8-0.994 0-1.8 0.806-1.8 1.8 0 0.026 0.003 0.051 0.004 0.076H91.4V91.4H71.6c0 0 0 0 0 0-0.994 0-1.8 0.806-1.8 1.8C69.8 94.194 70.606 95 71.6 95z" fill="#ffffff" data-fill-palette-color="accent"></path><path d="M5 71.6L5 71.6v21.6C5 94.194 5.806 95 6.8 95h0 21.524v-0.004C28.349 94.997 28.374 95 28.4 95c0.994 0 1.8-0.806 1.8-1.8 0-0.994-0.806-1.8-1.8-1.8-0.026 0-0.051 0.003-0.076 0.004V91.4H8.6V71.6c0 0 0 0 0 0 0-0.994-0.806-1.8-1.8-1.8C5.806 69.8 5 70.606 5 71.6z" fill="#ffffff" data-fill-palette-color="accent"></path><path d="M60.8 48.2h-9v-9c0-0.994-0.806-1.8-1.8-1.8-0.994 0-1.8 0.806-1.8 1.8v9h-9c-0.994 0-1.8 0.806-1.8 1.8 0 0.994 0.806 1.8 1.8 1.8h9v9c0 0.994 0.806 1.8 1.8 1.8 0.994 0 1.8-0.806 1.8-1.8v-9h9c0.994 0 1.8-0.806 1.8-1.8C62.6 49.006 61.794 48.2 60.8 48.2z" fill="#ffffff" data-fill-palette-color="accent"></path></svg></g></svg></g></svg></g><defs></defs></svg><rect width="395.52" height="144.7561883976535" fill="none" stroke="none" visibility="hidden"></rect></g></svg></g></svg>